<svg xmlns="http://www.w3.org/2000/svg" width="379.158" height="65.282" viewBox="0 0 379.158 65.282">
  <g id="グループ_640" data-name="グループ 640" transform="translate(-260 -183.178)">
    <path id="パス_6692" data-name="パス 6692" d="M.684,0V-2.033l6.574-9.234H.912V-13.3H9.975v2.033L3.4-2.033h6.745V0ZM12.92,0l5.073-13.3h1.938L25,0H22.515L21.489-2.926H16.378L15.352,0ZM17.1-4.959h3.686l-1.824-5.187ZM28.443,0V-13.3h5.586a4.14,4.14,0,0,1,2.7.865,3.032,3.032,0,0,1,1.064,2.5,3.357,3.357,0,0,1-.522,1.929,2.556,2.556,0,0,1-1.321,1.036,2.734,2.734,0,0,1,1.72,1.112,3.668,3.668,0,0,1,.694,2.27,3.257,3.257,0,0,1-1.1,2.717A4.737,4.737,0,0,1,34.238,0Zm2.185-2.033h3.306a2.283,2.283,0,0,0,1.549-.447,1.8,1.8,0,0,0,.5-1.415,1.672,1.672,0,0,0-.589-1.4,2.286,2.286,0,0,0-1.463-.466H30.628Zm0-5.776h3.021a1.7,1.7,0,0,0,1.311-.475A1.863,1.863,0,0,0,35.4-9.6a1.6,1.6,0,0,0-.465-1.254,1.91,1.91,0,0,0-1.32-.418H30.628ZM47.386.247a5.124,5.124,0,0,1-3.8-1.321,5.4,5.4,0,0,1-1.311-3.961V-13.3H44.5v8.151a3.4,3.4,0,0,0,.77,2.48,2.863,2.863,0,0,0,2.118.769A2.83,2.83,0,0,0,49.5-2.669a3.428,3.428,0,0,0,.76-2.48V-13.3h2.2v8.265a5.454,5.454,0,0,1-1.292,3.961A5.058,5.058,0,0,1,47.386.247ZM56.9,0V-13.3H59.09l6.27,9.443V-13.3h2.223V0H65.474L59.09-9.709V0ZM79.382,0V-13.3h6.08a4.6,4.6,0,0,1,2.954.874,3.562,3.562,0,0,1,1.092,2.945,3.621,3.621,0,0,1-1.092,2.964,4.531,4.531,0,0,1-2.954.893h-3.9V0Zm2.185-7.676h3.591a2.378,2.378,0,0,0,1.5-.418,1.66,1.66,0,0,0,.532-1.387,1.635,1.635,0,0,0-.532-1.368,2.378,2.378,0,0,0-1.5-.418H81.567ZM93.271,0V-13.3h6.08a4.6,4.6,0,0,1,2.954.874A3.562,3.562,0,0,1,103.4-9.481a3.888,3.888,0,0,1-.8,2.651,3.516,3.516,0,0,1-2.2,1.111L103.246,0h-2.565L98.116-5.624h-2.66V0Zm2.185-7.676h3.591a2.378,2.378,0,0,0,1.5-.418,1.66,1.66,0,0,0,.532-1.387,1.635,1.635,0,0,0-.532-1.368,2.378,2.378,0,0,0-1.5-.418H95.456ZM112.917.3a6.105,6.105,0,0,1-3.22-.855,5.865,5.865,0,0,1-2.214-2.423,8,8,0,0,1-.8-3.677,8.048,8.048,0,0,1,.8-3.7,5.93,5.93,0,0,1,2.214-2.432,6.054,6.054,0,0,1,3.22-.865,5.957,5.957,0,0,1,3.2.865,6.04,6.04,0,0,1,2.2,2.432,7.969,7.969,0,0,1,.807,3.7,7.925,7.925,0,0,1-.807,3.677,5.972,5.972,0,0,1-2.2,2.423A6.007,6.007,0,0,1,112.917.3Zm0-2.128a3.575,3.575,0,0,0,2.071-.6,3.91,3.91,0,0,0,1.358-1.691,6.207,6.207,0,0,0,.485-2.536,6.258,6.258,0,0,0-.485-2.555,3.91,3.91,0,0,0-1.358-1.691,3.575,3.575,0,0,0-2.071-.6,3.632,3.632,0,0,0-2.071.6,3.859,3.859,0,0,0-1.378,1.691,6.258,6.258,0,0,0-.484,2.555,6.207,6.207,0,0,0,.484,2.536,3.859,3.859,0,0,0,1.378,1.691A3.632,3.632,0,0,0,112.917-1.824ZM126.369.3a4.819,4.819,0,0,1-2.47-.561,3.242,3.242,0,0,1-1.377-1.587,6.137,6.137,0,0,1-.428-2.375h2.185a2.583,2.583,0,0,0,.532,1.8,2.028,2.028,0,0,0,1.558.57,1.966,1.966,0,0,0,1.539-.57,2.648,2.648,0,0,0,.513-1.8V-13.3h2.223v9.082a6.019,6.019,0,0,1-.437,2.375,3.306,3.306,0,0,1-1.378,1.587A4.765,4.765,0,0,1,126.369.3Zm8.683-.3V-13.3h8.892v2.033h-6.707v3.458h6.118v2.052h-6.118v3.724h6.916V0Zm18.6.3a6.105,6.105,0,0,1-3.221-.855,5.865,5.865,0,0,1-2.214-2.423,8,8,0,0,1-.8-3.677,8.048,8.048,0,0,1,.8-3.7,5.93,5.93,0,0,1,2.214-2.432,6.054,6.054,0,0,1,3.221-.865,6.062,6.062,0,0,1,3,.741A5.8,5.8,0,0,1,158.8-10.83l-1.957,1.14a3.9,3.9,0,0,0-1.34-1.33,3.585,3.585,0,0,0-1.852-.475,3.632,3.632,0,0,0-2.071.6A3.859,3.859,0,0,0,150.2-9.205a6.258,6.258,0,0,0-.484,2.555,6.207,6.207,0,0,0,.484,2.536,3.859,3.859,0,0,0,1.378,1.691,3.632,3.632,0,0,0,2.071.6,3.585,3.585,0,0,0,1.852-.475,3.9,3.9,0,0,0,1.34-1.33l1.957,1.14a5.849,5.849,0,0,1-2.147,2.052A6.062,6.062,0,0,1,153.653.3ZM165.946,0V-11.267h-4.009V-13.3h10.222v2.033h-3.99V0Z" transform="translate(467 243.818)" fill="#6fa8d6"/>
    <g id="グループ_222" data-name="グループ 222" transform="translate(-388.035 751.259)">
      <g id="グループ_185" data-name="グループ 185" transform="translate(648.036 -568.081)">
        <path id="パス_3845" data-name="パス 3845" d="M31.991,315.325c-1.972,0-9.714-.438-10.81-2.045-.438-.658-.8-6.793-.8-7.961a1.409,1.409,0,0,1,1.534-1.607,25.265,25.265,0,0,1,4.528,1.023,11.635,11.635,0,0,0,3.141.438c1.534,0,2.557-.438,2.557-2.118,0-1.534-1.388-4.382-3.141-4.382-.8,0-3.359,1.534-4.236,2.045-4.455,2.775-11.175,6.866-15.338,9.86a4.476,4.476,0,0,0-1.9,1.972c-.365.584-.658,1.1-1.242,1.1-.8,0-2.337-2.7-3.214-4.236C1.607,306.926,0,304.078,0,303.055c0-.8.877-1.1,2.337-1.607,3.433-1.242,14.023-7.3,18.113-9.422a2.026,2.026,0,0,0,1.315-1.826,1.965,1.965,0,0,0-.365-1.1,9.571,9.571,0,0,1-1.1-4.456c0-2.921,1.9-9.86,4.455-9.86,1.169,0,8.4,2.41,8.4,3.506a3.246,3.246,0,0,1-.585,1.169,9.349,9.349,0,0,0-1.679,4.674c0,1.242,1.388,2.995,2.7,2.995.292,0,.511-.073.8-.073a20.624,20.624,0,0,1,2.994-.219c8.4,0,15.119,3.141,20.962,9.057,1.534,1.534,7.3,8.253,7.3,10.153,0,1.607-7.45,5.77-9.349,5.77-.8,0-1.315-1.023-1.826-2.118-2.337-4.674-4.747-8.545-9.276-11.394a5.9,5.9,0,0,0-2.264-1.023.906.906,0,0,0-.877.95,1.667,1.667,0,0,0,.219.8,16.837,16.837,0,0,1,1.68,7.085c0,7.523-5.478,9.2-11.979,9.2m-4.528-54.632c.876,0,6.719,2.848,7.815,3.433,1.315.657,7.6,3.725,7.6,5.04,0,1.461-2.483,5.186-3.36,6.5-.584.877-1.607,2.337-2.41,2.337a2.81,2.81,0,0,1-1.607-.95,50.425,50.425,0,0,0-11.321-7.012c-1.1-.512-1.753-.8-1.753-1.607,0-1.023,3.068-7.742,5.04-7.742m30.822,16.288c0,1.315-3.433,4.163-4.309,4.163-.438,0-.876-.584-1.315-1.1-1.825-2.191-3.287-3.725-5.258-5.77a1.2,1.2,0,0,1-.584-.877c0-1.1,3.8-3.725,4.528-3.725s6.939,6.208,6.939,7.3m8.107-6.135c0,1.242-3.359,4.163-4.309,4.163-.366,0-.584-.365-.8-.657a77.479,77.479,0,0,0-5.843-6.208c-.219-.219-.511-.438-.511-.8,0-1.1,3.652-3.8,4.528-3.8.657,0,6.939,6.135,6.939,7.3" transform="translate(55.001 -254.575)" fill="#4184c7"/>
        <path id="パス_3846" data-name="パス 3846" d="M9.883,538.4c4.988-10.75,9.906-21.57,16.371-31.546,2.951-4.567,6.112-9.134,8.852-13.841.211-.422.422-.773.983-.773.773,0,5.34,3.513,6.253,4.215l.913.7c1.335.984,2.108,1.616,2.108,2.248s-.422.913-.984,1.054c-1.827.351-1.827.7-3.232,2.459a103.537,103.537,0,0,0-7.307,10.187,2.632,2.632,0,0,0-.492,1.124,1.045,1.045,0,0,0,.913.913,5.326,5.326,0,0,0,1.124-.211,10.722,10.722,0,0,1,2.53-.281c6.112,0,9.977,3.162,9.977,9.414,0,3.092-1.124,7.377-1.686,10.469a15.386,15.386,0,0,0-.351,2.67c0,.7.351,1.4,1.194,1.4,2.459,0,9.063-7.939,10.68-10.047,1.194-1.546,1.827-2.318,2.74-2.318,1.4,0,4.708,7.448,4.708,8.712,0,1.335-4.637,5.621-5.762,6.674-4.286,3.864-9.555,7.939-15.6,7.939-5.691,0-8.08-4.777-8.08-9.836a45.288,45.288,0,0,1,.984-8.15,38.091,38.091,0,0,0,.7-5.2c0-1.194-.422-1.967-1.686-1.967a12.209,12.209,0,0,0-5.34,1.686,15.093,15.093,0,0,0-6.113,6.464,71.855,71.855,0,0,0-6.042,14.4c-.281,1.054-.562,2.108-1.827,2.108-1.616,0-5.832-1.967-7.377-2.81-1.194-.633-1.967-.984-1.967-1.616a65.078,65.078,0,0,1,2.81-6.253" transform="translate(119.307 -487.762)" fill="#4184c7"/>
        <path id="パス_3847" data-name="パス 3847" d="M45.589,21c.785,1.5,1.142,2.212,2.355,2.212s4.568-2.212,5.709-3a5.816,5.816,0,0,1,2.641-1.213c1.713,0,5.709,6.637,5.709,8.421,0,1-1.427,1.642-2.427,2.07-1.713.785-3.354,1.57-5.067,2.284-1.213.5-1.856.928-1.856,1.927,0,.785.857,2.212,1.57,3.425,2.5,4.5,4.853,8.921,7.994,12.347.642.714,2.212,2.427,2.212,3.354,0,1.927-5.353,6.138-6.994,6.138a6.182,6.182,0,0,1-2.57-1.285c-.285-.214-.571-.357-.785-.5-3.64-2.569-11.134-5.638-15.558-5.638-2.57,0-5.781,1.642-5.781,4.5,0,6.209,10.134,7.279,14.631,7.279,1.5,0,2.855-.143,4.139-.143,2.213,0,2.284,1.784,2.284,3.5a23.125,23.125,0,0,1-.785,5.852c-.357,1.285-1,1.641-2.712,1.641a64.667,64.667,0,0,1-13.345-1.855c-7.994-2-14.916-6.637-14.916-15.7,0-9.135,7.564-14.845,16.272-14.845a24.111,24.111,0,0,1,4.5.5,1.393,1.393,0,0,0,.5.071c.571,0,1.213-.285,1.213-.928a10.912,10.912,0,0,0-1.427-3c-.785-1.427-1.213-2-2.5-2a6.235,6.235,0,0,0-1,.214c-3.425.857-12.7,2.5-16.057,2.5-1.927,0-2.284-.642-2.855-2.355a26,26,0,0,1-1.427-6.423c0-1.641.571-1.856,3.568-1.927a99.306,99.306,0,0,0,10.634-1.07c.857-.143,1.784-.571,1.784-1.57,0-1.142-2.427-4.211-3.212-5.138-.571-.714-1.927-2.5-1.927-3.283,0-1.213,2.141-2.07,3.069-2.427,1.57-.642,5.067-2,6.637-2,1.5,0,2.07,1.07,4.068,4.853Z" transform="translate(-19.254 -8.892)" fill="#4184c7"/>
        <path id="パス_3848" data-name="パス 3848" d="M159.778,16.071c.857,1,4.924,5.924,4.924,6.923,0,1.427-3.782,3.711-4.568,3.711-.428,0-.784-.571-1.07-1a70.605,70.605,0,0,0-4.711-6.423c-.285-.357-.428-.571-.428-.785,0-1.07,3.926-3.211,4.782-3.211.357,0,.714.357,1.07.785" transform="translate(-113.749 -10.504)" fill="#4184c7"/>
        <path id="パス_3849" data-name="パス 3849" d="M184.575.785c.928,1,5,5.852,5,6.923,0,1.356-3.783,3.711-4.568,3.711-.428,0-.714-.5-1.855-2.284-1-1.5-2.855-3.711-4-5.138a1.584,1.584,0,0,1-.357-.785c0-1,3.853-3.211,4.71-3.211.357,0,.5.214,1.071.785" transform="translate(-130.837)" fill="#4184c7"/>
      </g>
    </g>
  </g>
</svg>
