<svg xmlns="http://www.w3.org/2000/svg" width="970.174" height="168.786" viewBox="0 0 970.174 168.786">
  <g id="グループ_636" data-name="グループ 636" transform="translate(23019.986 1073.407)">
    <path id="パス_6688" data-name="パス 6688" d="M1.617,0V-5.88L18.179-28.42H2.205V-34.3H26.019v5.88L9.506-5.88H26.558V0Zm32.83,0L47.334-34.3h5.635L65.856,0h-7.2l-2.3-6.811H43.757L41.454,0ZM45.815-12.691h8.526L50.127-25.137ZM75.411,0V-34.3H90.356a11.763,11.763,0,0,1,4.875.98A8.093,8.093,0,0,1,98.71-30.4a8.384,8.384,0,0,1,1.3,4.778,8.869,8.869,0,0,1-1.348,5.047,6.3,6.3,0,0,1-3.406,2.646,6.193,6.193,0,0,1,3.112,1.4,8.126,8.126,0,0,1,2.229,3.014,10.214,10.214,0,0,1,.833,4.214q0,4.851-2.916,7.08A12.375,12.375,0,0,1,90.8,0Zm6.37-5.88h8.134a5.145,5.145,0,0,0,3.479-1.029,4.147,4.147,0,0,0,1.176-3.283A3.791,3.791,0,0,0,93.2-13.4a5.232,5.232,0,0,0-3.283-1.053H81.781Zm0-14.5h7.3q3.969,0,3.969-4.214A3.677,3.677,0,0,0,92-27.465a4.181,4.181,0,0,0-2.915-.955h-7.3ZM125.587.637q-6.566,0-9.972-3.357T112.21-12.887V-34.3h6.419v21.07q0,4.165,1.886,5.929a7.127,7.127,0,0,0,5.072,1.764A7.038,7.038,0,0,0,130.634-7.3Q132.5-9.065,132.5-13.23V-34.3h6.419v21.413q0,6.811-3.381,10.168T125.587.637ZM150.969,0V-34.3h6.37l15.337,23.177V-34.3H179.1V0h-6.076l-15.68-23.961V0Zm60.123,0V-34.3h15.876a14.662,14.662,0,0,1,5.611.98,7.451,7.451,0,0,1,3.675,3.185,11.649,11.649,0,0,1,1.3,5.929,11.789,11.789,0,0,1-1.3,5.953,7.547,7.547,0,0,1-3.675,3.234,14.345,14.345,0,0,1-5.611,1h-9.506V0Zm6.37-19.943h8.624a5.573,5.573,0,0,0,3.479-.98,3.889,3.889,0,0,0,1.274-3.283,3.828,3.828,0,0,0-1.274-3.234,5.573,5.573,0,0,0-3.479-.98h-8.624ZM247.94,0V-34.3h15.876a14.662,14.662,0,0,1,5.611.98,7.451,7.451,0,0,1,3.675,3.185,11.649,11.649,0,0,1,1.3,5.929q0,4.606-1.984,6.934a9.048,9.048,0,0,1-5.464,2.964L273.91,0h-7.4l-6.076-14.014H254.31V0Zm6.37-19.943h8.624a5.573,5.573,0,0,0,3.479-.98,3.889,3.889,0,0,0,1.274-3.283,3.828,3.828,0,0,0-1.274-3.234,5.573,5.573,0,0,0-3.479-.98H254.31ZM299.733.833a15.874,15.874,0,0,1-8.33-2.205,15.235,15.235,0,0,1-5.758-6.247,20.553,20.553,0,0,1-2.082-9.53,20.667,20.667,0,0,1,2.082-9.58A15.4,15.4,0,0,1,291.4-33a15.74,15.74,0,0,1,8.33-2.229A15.613,15.613,0,0,1,308.039-33a15.459,15.459,0,0,1,5.733,6.272,20.667,20.667,0,0,1,2.082,9.58,20.553,20.553,0,0,1-2.082,9.53,15.289,15.289,0,0,1-5.733,6.247A15.746,15.746,0,0,1,299.733.833Zm0-6.174A8.608,8.608,0,0,0,304.8-6.836a9.59,9.59,0,0,0,3.283-4.141,15.366,15.366,0,0,0,1.151-6.174,15.5,15.5,0,0,0-1.151-6.223,9.59,9.59,0,0,0-3.283-4.141,8.608,8.608,0,0,0-5.072-1.494,8.525,8.525,0,0,0-5.022,1.494,9.759,9.759,0,0,0-3.307,4.141,15.218,15.218,0,0,0-1.176,6.223,15.086,15.086,0,0,0,1.176,6.174,9.759,9.759,0,0,0,3.307,4.141A8.525,8.525,0,0,0,299.733-5.341ZM335.454.833a12.445,12.445,0,0,1-6.492-1.495,8.7,8.7,0,0,1-3.6-4.165,15.7,15.7,0,0,1-1.127-6.15h6.37a6.154,6.154,0,0,0,1.225,4.263,4.7,4.7,0,0,0,3.626,1.323,4.621,4.621,0,0,0,3.6-1.323,6.241,6.241,0,0,0,1.2-4.263V-34.3h6.419v23.324a15.7,15.7,0,0,1-1.127,6.15,8.7,8.7,0,0,1-3.6,4.165A12.445,12.445,0,0,1,335.454.833ZM358.68,0V-34.3h23.373v5.88h-17v7.987h15.533v5.88H365.05V-5.88h17.542V0Zm49.2.833a15.874,15.874,0,0,1-8.33-2.205,15.235,15.235,0,0,1-5.758-6.247,20.553,20.553,0,0,1-2.082-9.53,20.667,20.667,0,0,1,2.082-9.58A15.4,15.4,0,0,1,399.546-33a15.74,15.74,0,0,1,8.33-2.229,15.829,15.829,0,0,1,7.865,1.96,14.945,14.945,0,0,1,5.611,5.488L415.667-24.5a8.873,8.873,0,0,0-3.21-3.332,8.816,8.816,0,0,0-4.582-1.176,8.525,8.525,0,0,0-5.022,1.494,9.759,9.759,0,0,0-3.307,4.141,15.218,15.218,0,0,0-1.176,6.223,15.086,15.086,0,0,0,1.176,6.174,9.759,9.759,0,0,0,3.307,4.141,8.525,8.525,0,0,0,5.022,1.495,8.676,8.676,0,0,0,4.582-1.2,9.174,9.174,0,0,0,3.21-3.308l5.684,3.283a15.059,15.059,0,0,1-5.611,5.439A15.829,15.829,0,0,1,407.876.833ZM440.216,0V-28.42H430.122V-34.3H456.68v5.88H446.635V0Z" transform="translate(-22506.492 -967.514)" fill="#6fa8d6"/>
    <g id="グループ_587" data-name="グループ 587" transform="translate(-24311 -1390)">
      <path id="パス_3845" data-name="パス 3845" d="M82.713,401.945c-5.1,0-25.115-1.133-27.949-5.287-1.132-1.7-2.077-17.562-2.077-20.584,0-2.644,1.322-4.154,3.966-4.154s9.065,1.889,11.708,2.644a30.086,30.086,0,0,0,8.12,1.133c3.966,0,6.61-1.133,6.61-5.476,0-3.966-3.588-11.33-8.121-11.33-2.077,0-8.686,3.966-10.952,5.288-11.519,7.176-28.893,17.751-39.657,25.493-3.022,2.078-3.211,2.266-4.91,5.1-.944,1.511-1.7,2.833-3.21,2.833-2.078,0-6.043-6.987-8.31-10.953C4.155,380.229,0,372.864,0,370.22c0-2.077,2.266-2.833,6.043-4.154,8.876-3.21,36.258-18.884,46.832-24.361,2.078-1.133,3.4-2.454,3.4-4.721a5.081,5.081,0,0,0-.944-2.832,24.746,24.746,0,0,1-2.832-11.52c0-7.553,4.909-25.493,11.519-25.493,3.021,0,21.717,6.231,21.717,9.064,0,.566-.567,1.511-1.511,3.021-1.7,2.833-4.342,7.176-4.342,12.086,0,3.211,3.587,7.743,6.986,7.743.756,0,1.322-.189,2.078-.189a53.335,53.335,0,0,1,7.742-.567c21.717,0,39.09,8.12,54.2,23.416,3.966,3.966,18.883,21.339,18.883,26.25,0,4.154-19.262,14.919-24.172,14.919-2.077,0-3.4-2.644-4.721-5.477-6.043-12.086-12.275-22.094-23.982-29.46-2.078-1.322-4.533-2.644-5.855-2.644a2.344,2.344,0,0,0-2.266,2.455,4.311,4.311,0,0,0,.567,2.078c2.643,4.909,4.344,12.652,4.344,18.317,0,19.45-14.164,23.794-30.971,23.794M71,260.693c2.266,0,17.373,7.365,20.206,8.875,3.4,1.7,19.639,9.631,19.639,13.03,0,3.777-6.421,13.408-8.687,16.807-1.511,2.266-4.154,6.043-6.232,6.043-1.51,0-3.209-1.511-4.154-2.455-8.308-7.365-19.45-13.408-29.27-18.128-2.833-1.323-4.532-2.077-4.532-4.155,0-2.644,7.931-20.016,13.03-20.016M150.7,302.8c0,3.4-8.876,10.764-11.141,10.764-1.133,0-2.266-1.511-3.4-2.833-4.72-5.665-8.5-9.631-13.6-14.918a3.106,3.106,0,0,1-1.511-2.266c0-2.833,9.82-9.631,11.708-9.631S150.7,299.972,150.7,302.8m20.961-15.863c0,3.21-8.686,10.764-11.141,10.764-.945,0-1.511-.944-2.078-1.7a200.321,200.321,0,0,0-15.108-16.052c-.565-.567-1.321-1.133-1.321-2.078,0-2.833,9.441-9.819,11.708-9.819,1.7,0,17.94,15.863,17.94,18.884" transform="translate(1433.221 71.717)" fill="#4184c7"/>
      <path id="パス_3846" data-name="パス 3846" d="M14.339,611.591c12.9-27.793,25.613-55.768,42.326-81.563,7.63-11.808,15.8-23.615,22.888-35.787.545-1.09,1.09-2,2.542-2,2,0,13.806,9.083,16.168,10.9l2.361,1.816c3.453,2.544,5.45,4.178,5.45,5.813s-1.09,2.362-2.543,2.725c-4.723.909-4.723,1.816-8.357,6.358A267.7,267.7,0,0,0,76.283,546.2a6.8,6.8,0,0,0-1.272,2.906,2.7,2.7,0,0,0,2.362,2.361,13.768,13.768,0,0,0,2.906-.544,27.73,27.73,0,0,1,6.54-.727c15.8,0,25.794,8.174,25.794,24.341,0,7.994-2.906,19.074-4.36,27.067a39.782,39.782,0,0,0-.908,6.9c0,1.816.908,3.632,3.088,3.632,6.358,0,23.434-20.526,27.612-25.977,3.088-4,4.723-5.994,7.084-5.994,3.632,0,12.172,19.256,12.172,22.525,0,3.451-11.99,14.532-14.9,17.257-11.081,9.991-24.705,20.527-40.327,20.527-14.715,0-20.89-12.352-20.89-25.431,0-7.085,1.272-14.169,2.544-21.072.726-3.815,1.816-10.355,1.816-13.443s-1.09-5.086-4.36-5.086c-4.542,0-9.809,2.18-13.805,4.36-7.63,4.359-11.444,9.083-15.8,16.712-5.268,9.447-13.079,26.7-15.622,37.24-.727,2.725-1.454,5.449-4.723,5.449-4.179,0-15.078-5.086-19.074-7.266-3.088-1.636-5.086-2.543-5.086-4.179,0-1.271,6.176-13.987,7.266-16.167" transform="translate(1610.697 -164.064)" fill="#4184c7"/>
      <path id="パス_3847" data-name="パス 3847" d="M87.343,33.791c2.03,3.875,2.953,5.72,6.09,5.72s11.81-5.72,14.761-7.75c2.215-1.476,4.8-3.137,6.828-3.137,4.428,0,14.762,17.161,14.762,21.773,0,2.583-3.691,4.245-6.274,5.351-4.429,2.03-8.672,4.06-13.1,5.905-3.137,1.292-4.8,2.4-4.8,4.982,0,2.029,2.215,5.72,4.059,8.857,6.459,11.625,12.548,23.066,20.668,31.922,1.661,1.846,5.72,6.274,5.72,8.673,0,4.981-13.84,15.869-18.084,15.869-1.845,0-4.429-1.846-6.644-3.322-.737-.553-1.475-.922-2.028-1.292-9.411-6.643-28.787-14.577-40.226-14.577-6.644,0-14.947,4.245-14.947,11.625,0,16.053,26.2,18.821,37.828,18.821,3.875,0,7.38-.369,10.7-.369,5.721,0,5.905,4.613,5.905,9.042a59.79,59.79,0,0,1-2.03,15.131c-.923,3.322-2.583,4.244-7.012,4.244-9.964,0-24.91-2.4-34.5-4.8-20.668-5.167-38.565-17.161-38.565-40.6,0-23.618,19.558-38.381,42.071-38.381a62.341,62.341,0,0,1,11.625,1.292,3.6,3.6,0,0,0,1.291.184c1.476,0,3.137-.738,3.137-2.4,0-1.477-2.213-5.167-3.69-7.75-2.03-3.691-3.137-5.167-6.458-5.167a16.12,16.12,0,0,0-2.584.553C62.987,76.416,39,80.66,30.327,80.66c-4.983,0-5.905-1.66-7.382-6.089s-3.691-12.179-3.691-16.607c0-4.244,1.476-4.8,9.226-4.982,5.352-.184,21.037-1.476,27.494-2.768,2.215-.369,4.613-1.476,4.613-4.059,0-2.952-6.274-10.887-8.3-13.286C50.808,31.024,47.3,26.41,47.3,24.381c0-3.137,5.536-5.351,7.935-6.274,4.059-1.66,13.1-5.167,17.161-5.167,3.875,0,5.351,2.768,10.517,12.548Z" transform="translate(1271.76 314.119)" fill="#4184c7"/>
      <path id="パス_3848" data-name="パス 3848" d="M169.056,17.315c2.215,2.583,12.732,15.316,12.732,17.9,0,3.691-9.778,9.6-11.81,9.6-1.106,0-2.028-1.477-2.767-2.583a182.553,182.553,0,0,0-12.179-16.607c-.737-.922-1.106-1.476-1.106-2.029,0-2.768,10.15-8.3,12.364-8.3.922,0,1.845.922,2.767,2.029" transform="translate(1240.967 313.67)" fill="#4184c7"/>
      <path id="パス_3849" data-name="パス 3849" d="M193.74,2.029c2.4,2.583,12.916,15.131,12.916,17.9,0,3.505-9.78,9.595-11.81,9.595-1.107,0-1.845-1.292-4.8-5.905-2.583-3.875-7.382-9.595-10.333-13.285a4.1,4.1,0,0,1-.922-2.03c0-2.583,9.963-8.3,12.178-8.3.923,0,1.292.553,2.768,2.029" transform="translate(1236.213 316.593)" fill="#4184c7"/>
    </g>
  </g>
</svg>
