<svg xmlns="http://www.w3.org/2000/svg" width="342.49" height="135.832" viewBox="0 0 342.49 135.832">
  <g id="グループ_633" data-name="グループ 633" transform="translate(-260 -753.695)">
    <path id="パス_6654" data-name="パス 6654" d="M-145.45-26.94a2.91,2.91,0,0,1-.52,1.68L-160.81-4.3h15.02V0h-22V-2.12a2.158,2.158,0,0,1,.14-.77,3.232,3.232,0,0,1,.36-.69l14.88-21.06h-14.44v-4.28h21.4Zm23.58,16.02-3.52-9.62q-.26-.64-.54-1.52t-.56-1.9q-.26,1.02-.54,1.91t-.54,1.55l-3.5,9.58ZM-112.37,0h-4.16a1.776,1.776,0,0,1-1.14-.35,2.179,2.179,0,0,1-.66-.87l-2.16-5.9h-11.98l-2.16,5.9a1.917,1.917,0,0,1-.62.84,1.73,1.73,0,0,1-1.14.38h-4.2l11.38-28.92h5.48Zm17.82-4.2a7.637,7.637,0,0,0,2.52-.36,4.349,4.349,0,0,0,1.63-.96,3.517,3.517,0,0,0,.88-1.4,5.281,5.281,0,0,0,.27-1.7,4.517,4.517,0,0,0-.3-1.69,3.17,3.17,0,0,0-.94-1.28,4.393,4.393,0,0,0-1.65-.81,9.189,9.189,0,0,0-2.43-.28h-5.42V-4.2Zm-5.44-20.56v8.36h4.28a7.2,7.2,0,0,0,4.17-1,3.628,3.628,0,0,0,1.41-3.18,3.768,3.768,0,0,0-1.28-3.22,6.693,6.693,0,0,0-4-.96Zm4.58-4.16a19.026,19.026,0,0,1,4.86.54,9.245,9.245,0,0,1,3.31,1.54,5.975,5.975,0,0,1,1.89,2.42,8.149,8.149,0,0,1,.6,3.2,6.312,6.312,0,0,1-.3,1.95,5.642,5.642,0,0,1-.93,1.74,6.967,6.967,0,0,1-1.6,1.47,9.673,9.673,0,0,1-2.31,1.12q5.96,1.34,5.96,6.44a8.209,8.209,0,0,1-.7,3.4,7.5,7.5,0,0,1-2.04,2.69,9.747,9.747,0,0,1-3.3,1.77A14.418,14.418,0,0,1-94.45,0h-10.92V-28.92ZM-63.39-4.34a7.105,7.105,0,0,0,2.79-.52,5.718,5.718,0,0,0,2.07-1.46A6.458,6.458,0,0,0-57.24-8.6a9.389,9.389,0,0,0,.45-3V-28.92h5.38V-11.6a13.353,13.353,0,0,1-.83,4.77,10.853,10.853,0,0,1-2.38,3.78A10.8,10.8,0,0,1-58.39-.57a13.337,13.337,0,0,1-5,.89,13.4,13.4,0,0,1-5.02-.89,10.8,10.8,0,0,1-3.77-2.48,10.853,10.853,0,0,1-2.38-3.78,13.353,13.353,0,0,1-.83-4.77V-28.92h5.38v17.3a9.389,9.389,0,0,0,.45,3,6.479,6.479,0,0,0,1.3,2.29,5.756,5.756,0,0,0,2.08,1.47A7.105,7.105,0,0,0-63.39-4.34Zm46.44-24.58V0h-2.76a2.429,2.429,0,0,1-1.07-.21,2.5,2.5,0,0,1-.83-.71L-36.71-20.2q.12,1.32.12,2.44V0h-4.74V-28.92h2.82a5.029,5.029,0,0,1,.59.03,1.418,1.418,0,0,1,.44.12,1.442,1.442,0,0,1,.37.26,4.169,4.169,0,0,1,.4.45L-21.55-8.7q-.06-.7-.1-1.38t-.04-1.26V-28.92Zm38.1,18-3.52-9.62q-.26-.64-.54-1.52t-.56-1.9q-.26,1.02-.54,1.91t-.54,1.55l-3.5,9.58ZM30.65,0H26.49a1.776,1.776,0,0,1-1.14-.35,2.179,2.179,0,0,1-.66-.87l-2.16-5.9H10.55L8.39-1.22a1.917,1.917,0,0,1-.62.84A1.73,1.73,0,0,1,6.63,0H2.43L13.81-28.92h5.48ZM74.23-28.92,65.25,0H60.39L54.07-19.76a13.477,13.477,0,0,1-.48-1.76q-.12.5-.24.94t-.26.82L46.71,0H41.83L32.87-28.92h4.5a1.986,1.986,0,0,1,1.17.33,1.589,1.589,0,0,1,.63.89l4.92,17.3q.16.64.31,1.39t.31,1.57q.16-.84.35-1.58t.41-1.38l5.68-17.3a1.893,1.893,0,0,1,.63-.84,1.77,1.77,0,0,1,1.15-.38h1.58a1.812,1.812,0,0,1,1.14.34,2.081,2.081,0,0,1,.66.88l5.66,17.3a24.97,24.97,0,0,1,.76,2.86q.26-1.58.58-2.86l4.92-17.3a1.5,1.5,0,0,1,.61-.86,1.922,1.922,0,0,1,1.17-.36Zm20.94,18-3.52-9.62q-.26-.64-.54-1.52t-.56-1.9q-.26,1.02-.54,1.91t-.54,1.55l-3.5,9.58ZM104.67,0h-4.16a1.776,1.776,0,0,1-1.14-.35,2.179,2.179,0,0,1-.66-.87l-2.16-5.9H84.57l-2.16,5.9a1.917,1.917,0,0,1-.62.84A1.73,1.73,0,0,1,80.65,0h-4.2L87.83-28.92h5.48Zm15.74-15.16a8.327,8.327,0,0,0,2.65-.38,5.123,5.123,0,0,0,1.86-1.05,4.217,4.217,0,0,0,1.09-1.59,5.5,5.5,0,0,0,.36-2.02,4.107,4.107,0,0,0-1.45-3.38,6.936,6.936,0,0,0-4.43-1.18h-3.44v9.6ZM134.25,0h-4.86a2.132,2.132,0,0,1-2-1.08l-6.08-9.26a2.134,2.134,0,0,0-.75-.74,2.628,2.628,0,0,0-1.21-.22h-2.3V0h-5.38V-28.92h8.82a18.336,18.336,0,0,1,5.05.61A9.661,9.661,0,0,1,129-26.6a6.689,6.689,0,0,1,1.99,2.63,8.648,8.648,0,0,1,.64,3.37,8.733,8.733,0,0,1-.43,2.76,7.987,7.987,0,0,1-1.24,2.36,8.357,8.357,0,0,1-2,1.86,10.03,10.03,0,0,1-2.71,1.26,5.258,5.258,0,0,1,.96.71,5.046,5.046,0,0,1,.8.97Zm32.82-14.46a15.639,15.639,0,0,1-1.06,5.84,13.415,13.415,0,0,1-2.98,4.58,13.332,13.332,0,0,1-4.62,2.98,16.292,16.292,0,0,1-6,1.06H141.39V-28.92h11.02a16.156,16.156,0,0,1,6,1.07,13.526,13.526,0,0,1,4.62,2.98,13.309,13.309,0,0,1,2.98,4.57A15.639,15.639,0,0,1,167.07-14.46Zm-5.52,0a13.467,13.467,0,0,0-.63-4.27,8.849,8.849,0,0,0-1.82-3.2,7.94,7.94,0,0,0-2.88-2.01,9.875,9.875,0,0,0-3.81-.7h-5.62V-4.28h5.62a9.875,9.875,0,0,0,3.81-.7,7.94,7.94,0,0,0,2.88-2.01,8.849,8.849,0,0,0,1.82-3.2A13.467,13.467,0,0,0,161.55-14.46Z" transform="translate(432.961 889.207)" fill="#4985c1"/>
    <g id="グループ_520" data-name="グループ 520" transform="translate(260 733)">
      <path id="パス_6653" data-name="パス 6653" d="M-30.315,12.056a27.879,27.879,0,0,0-2.054-5.637,29.907,29.907,0,0,0-3.1-5.2A59.467,59.467,0,0,0-26.339-.048,96.273,96.273,0,0,0-16.42-2.626h-8.826V-34.7H29.285V-2.626H20.371A101,101,0,0,0,30.421-.048a60.455,60.455,0,0,0,9.089,1.267,28.143,28.143,0,0,0-3.059,5.2,34.883,34.883,0,0,0-2.1,5.637,80.724,80.724,0,0,1-9.7-1.966A99.307,99.307,0,0,1,14.56,6.856,85.925,85.925,0,0,1,5.427,2.792L9.535-2.626H-5.584l4.195,5.418a77.92,77.92,0,0,1-9.089,4.064,104.21,104.21,0,0,1-10.094,3.233A78.047,78.047,0,0,1-30.315,12.056Zm-6.2-52.521v-21.5h12.759q-.787-1.486-1.529-2.8a16.71,16.71,0,0,0-1.442-2.185l11.8-4.02a43.368,43.368,0,0,1,2.491,4.238q1.355,2.578,2.316,4.763h5.593V-70.79h13.2v8.826H13.9q1.049-2.01,2.1-4.413a37.8,37.8,0,0,0,1.66-4.5l11.972,3.583a53.874,53.874,0,0,1-2.272,5.331H40.471V-40.9H28.061V-53.225H-24.111v12.759Zm14.856,3.758V-51.215H25.614v14.507Zm9.176,27.266H16.526v-2.622H-12.488Zm0-7.953H16.526v-2.534H-12.488Zm0-7.953H16.526v-2.534H-12.488Zm3.146-17.3H13.292v-2.622H-9.342Z" transform="translate(302.019 96)" fill="#2fbcea"/>
      <g id="グループ_186" data-name="グループ 186" transform="translate(0 20.695)">
        <g id="グループ_185" data-name="グループ 185" transform="translate(0 0)">
          <path id="パス_3845" data-name="パス 3845" d="M45.213,337.906c-2.787,0-13.729-.619-15.278-2.89-.619-.929-1.135-9.6-1.135-11.252a1.991,1.991,0,0,1,2.168-2.271,35.709,35.709,0,0,1,6.4,1.445,16.443,16.443,0,0,0,4.439.619c2.168,0,3.613-.619,3.613-2.994,0-2.168-1.961-6.193-4.439-6.193-1.135,0-4.748,2.168-5.987,2.89-6.3,3.922-15.794,9.7-21.677,13.935a6.326,6.326,0,0,0-2.684,2.787c-.516.826-.929,1.548-1.755,1.548-1.136,0-3.3-3.819-4.542-5.987C2.271,326.035,0,322.009,0,320.564c0-1.135,1.239-1.548,3.3-2.271,4.852-1.755,19.82-10.323,25.6-13.316a2.863,2.863,0,0,0,1.858-2.58,2.778,2.778,0,0,0-.516-1.548,13.527,13.527,0,0,1-1.548-6.3c0-4.129,2.684-13.935,6.3-13.935,1.652,0,11.871,3.406,11.871,4.954a4.587,4.587,0,0,1-.826,1.651c-.929,1.549-2.374,3.923-2.374,6.607,0,1.755,1.961,4.232,3.819,4.232.413,0,.723-.1,1.136-.1a29.153,29.153,0,0,1,4.232-.31c11.871,0,21.368,4.439,29.626,12.8C84.646,312.615,92.8,322.112,92.8,324.8c0,2.271-10.529,8.155-13.213,8.155-1.135,0-1.858-1.445-2.58-2.994-3.3-6.607-6.71-12.077-13.109-16.1a8.335,8.335,0,0,0-3.2-1.445,1.281,1.281,0,0,0-1.239,1.342,2.357,2.357,0,0,0,.31,1.136A23.8,23.8,0,0,1,62.143,324.9c0,10.632-7.742,13.006-16.93,13.006m-6.4-77.213c1.238,0,9.5,4.026,11.045,4.851,1.858.929,10.735,5.264,10.735,7.123,0,2.065-3.51,7.329-4.749,9.187-.826,1.239-2.271,3.3-3.407,3.3a3.971,3.971,0,0,1-2.271-1.342c-4.541-4.026-10.632-7.329-16-9.91-1.548-.723-2.477-1.136-2.477-2.271,0-1.445,4.336-10.942,7.123-10.942m43.561,23.019c0,1.858-4.852,5.884-6.09,5.884-.619,0-1.238-.826-1.858-1.549-2.58-3.1-4.645-5.264-7.432-8.154a1.7,1.7,0,0,1-.826-1.239c0-1.548,5.368-5.264,6.4-5.264s9.806,8.774,9.806,10.323m11.458-8.671c0,1.755-4.748,5.884-6.09,5.884-.517,0-.826-.516-1.136-.929a109.491,109.491,0,0,0-8.258-8.774c-.309-.31-.722-.619-.722-1.136,0-1.548,5.161-5.368,6.4-5.368.929,0,9.806,8.671,9.806,10.323" transform="translate(73.324 -252.047)" fill="#2fbcea"/>
          <path id="パス_3846" data-name="パス 3846" d="M11.045,557.482c7.05-15.192,14-30.484,23.137-44.584,4.171-6.454,8.638-12.909,12.511-19.562.3-.6.6-1.092,1.39-1.092,1.092,0,7.547,4.965,8.838,5.958l1.291.993c1.887,1.391,2.979,2.284,2.979,3.178s-.6,1.291-1.39,1.489c-2.581.5-2.581.993-4.568,3.476a146.33,146.33,0,0,0-10.327,14.4,3.719,3.719,0,0,0-.7,1.589,1.476,1.476,0,0,0,1.291,1.291,7.529,7.529,0,0,0,1.589-.3,15.151,15.151,0,0,1,3.575-.4c8.639,0,14.1,4.468,14.1,13.306,0,4.37-1.589,10.426-2.383,14.8a21.744,21.744,0,0,0-.5,3.774c0,.993.5,1.986,1.688,1.986,3.475,0,12.809-11.22,15.094-14.2,1.688-2.185,2.581-3.277,3.872-3.277,1.986,0,6.653,10.526,6.653,12.313,0,1.887-6.554,7.944-8.143,9.433-6.057,5.462-13.5,11.221-22.044,11.221-8.043,0-11.419-6.752-11.419-13.9a64.008,64.008,0,0,1,1.391-11.519,53.832,53.832,0,0,0,.993-7.348c0-1.688-.6-2.78-2.383-2.78a17.256,17.256,0,0,0-7.546,2.383c-4.171,2.383-6.256,4.965-8.639,9.135-2.88,5.164-7.149,14.6-8.539,20.356-.4,1.489-.795,2.979-2.582,2.979-2.284,0-8.242-2.78-10.426-3.972-1.688-.894-2.78-1.39-2.78-2.284,0-.7,3.376-7.646,3.972-8.837" transform="translate(167.131 -485.91)" fill="#2fbcea"/>
          <path id="パス_3847" data-name="パス 3847" d="M54.5,23.732c1.051,2.006,1.528,2.961,3.152,2.961s6.112-2.961,7.64-4.011c1.146-.764,2.484-1.623,3.534-1.623,2.292,0,7.64,8.882,7.64,11.27,0,1.337-1.91,2.2-3.247,2.77-2.292,1.051-4.489,2.1-6.781,3.056-1.623.669-2.483,1.242-2.483,2.579,0,1.05,1.146,2.961,2.1,4.584,3.343,6.017,6.495,11.938,10.7,16.522.859.955,2.961,3.247,2.961,4.489,0,2.578-7.163,8.213-9.36,8.213-.955,0-2.292-.955-3.439-1.719-.381-.286-.764-.477-1.05-.669-4.871-3.438-14.9-7.545-20.82-7.545-3.439,0-7.736,2.2-7.736,6.017,0,8.309,13.562,9.742,19.579,9.742,2.006,0,3.82-.191,5.539-.191,2.961,0,3.056,2.387,3.056,4.68a30.946,30.946,0,0,1-1.051,7.831c-.478,1.719-1.337,2.2-3.629,2.2A86.54,86.54,0,0,1,42.94,92.4c-10.7-2.674-19.961-8.882-19.961-21.011,0-12.224,10.123-19.865,21.775-19.865a32.266,32.266,0,0,1,6.017.669,1.865,1.865,0,0,0,.668.1c.764,0,1.623-.382,1.623-1.241,0-.764-1.145-2.674-1.91-4.011-1.051-1.91-1.623-2.674-3.342-2.674a8.344,8.344,0,0,0-1.338.286c-4.584,1.146-17,3.343-21.488,3.343-2.579,0-3.056-.859-3.821-3.151s-1.91-6.3-1.91-8.6c0-2.2.764-2.483,4.775-2.579A132.894,132.894,0,0,0,38.26,32.232c1.146-.191,2.388-.764,2.388-2.1,0-1.528-3.247-5.635-4.3-6.876-.764-.955-2.578-3.343-2.578-4.393,0-1.623,2.865-2.77,4.107-3.247,2.1-.859,6.781-2.674,8.882-2.674,2.006,0,2.77,1.433,5.443,6.495Z" transform="translate(-19.254 -7.523)" fill="#2fbcea"/>
          <path id="パス_3848" data-name="パス 3848" d="M162.2,16.4c1.211,1.412,6.959,8.372,6.959,9.784,0,2.017-5.345,5.245-6.455,5.245-.6,0-1.108-.807-1.513-1.412a99.787,99.787,0,0,0-6.657-9.078c-.4-.5-.6-.807-.6-1.109,0-1.513,5.548-4.539,6.758-4.539.5,0,1.008.5,1.512,1.109" transform="translate(-101.553 -8.528)" fill="#2fbcea"/>
          <path id="パス_3849" data-name="パス 3849" d="M186.53,1.05c1.242,1.337,6.685,7.831,6.685,9.264,0,1.814-5.062,4.966-6.112,4.966-.573,0-.955-.669-2.483-3.056-1.337-2.006-3.821-4.966-5.348-6.876a2.119,2.119,0,0,1-.477-1.051c0-1.337,5.157-4.3,6.3-4.3.478,0,.669.286,1.433,1.05" transform="translate(-114.617)" fill="#2fbcea"/>
        </g>
      </g>
    </g>
  </g>
</svg>
