<svg xmlns="http://www.w3.org/2000/svg" width="714.492" height="138.832" viewBox="0 0 714.492 138.832">
  <g id="グループ_634" data-name="グループ 634" transform="translate(-260 -726.695)">
    <path id="パス_6657" data-name="パス 6657" d="M-209.68-26.94a2.91,2.91,0,0,1-.52,1.68L-225.04-4.3h15.02V0h-22V-2.12a2.158,2.158,0,0,1,.14-.77,3.232,3.232,0,0,1,.36-.69l14.88-21.06h-14.44v-4.28h21.4Zm23.58,16.02-3.52-9.62q-.26-.64-.54-1.52t-.56-1.9q-.26,1.02-.54,1.91t-.54,1.55l-3.5,9.58ZM-176.6,0h-4.16a1.776,1.776,0,0,1-1.14-.35,2.179,2.179,0,0,1-.66-.87l-2.16-5.9H-196.7l-2.16,5.9a1.917,1.917,0,0,1-.62.84,1.73,1.73,0,0,1-1.14.38h-4.2l11.38-28.92h5.48Zm17.82-4.2a7.638,7.638,0,0,0,2.52-.36,4.349,4.349,0,0,0,1.63-.96,3.517,3.517,0,0,0,.88-1.4,5.281,5.281,0,0,0,.27-1.7,4.517,4.517,0,0,0-.3-1.69,3.17,3.17,0,0,0-.94-1.28,4.393,4.393,0,0,0-1.65-.81,9.189,9.189,0,0,0-2.43-.28h-5.42V-4.2Zm-5.44-20.56v8.36h4.28a7.2,7.2,0,0,0,4.17-1,3.628,3.628,0,0,0,1.41-3.18,3.768,3.768,0,0,0-1.28-3.22,6.693,6.693,0,0,0-4-.96Zm4.58-4.16a19.026,19.026,0,0,1,4.86.54,9.245,9.245,0,0,1,3.31,1.54,5.975,5.975,0,0,1,1.89,2.42,8.149,8.149,0,0,1,.6,3.2,6.312,6.312,0,0,1-.3,1.95,5.642,5.642,0,0,1-.93,1.74,6.967,6.967,0,0,1-1.6,1.47,9.674,9.674,0,0,1-2.31,1.12q5.96,1.34,5.96,6.44a8.209,8.209,0,0,1-.7,3.4,7.5,7.5,0,0,1-2.04,2.69,9.747,9.747,0,0,1-3.3,1.77,14.418,14.418,0,0,1-4.48.64H-169.6V-28.92Zm32.02,24.58a7.105,7.105,0,0,0,2.79-.52,5.718,5.718,0,0,0,2.07-1.46,6.458,6.458,0,0,0,1.29-2.28,9.389,9.389,0,0,0,.45-3V-28.92h5.38V-11.6a13.353,13.353,0,0,1-.83,4.77,10.853,10.853,0,0,1-2.38,3.78,10.8,10.8,0,0,1-3.77,2.48,13.337,13.337,0,0,1-5,.89,13.4,13.4,0,0,1-5.02-.89,10.8,10.8,0,0,1-3.77-2.48,10.853,10.853,0,0,1-2.38-3.78,13.353,13.353,0,0,1-.83-4.77V-28.92h5.38v17.3a9.389,9.389,0,0,0,.45,3,6.479,6.479,0,0,0,1.3,2.29,5.756,5.756,0,0,0,2.08,1.47A7.1,7.1,0,0,0-127.62-4.34Zm46.44-24.58V0h-2.76a2.429,2.429,0,0,1-1.07-.21,2.5,2.5,0,0,1-.83-.71l-15.1-19.28q.12,1.32.12,2.44V0h-4.74V-28.92h2.82a5.029,5.029,0,0,1,.59.03,1.418,1.418,0,0,1,.44.12,1.442,1.442,0,0,1,.37.26,4.167,4.167,0,0,1,.4.45L-85.78-8.7q-.06-.7-.1-1.38t-.04-1.26V-28.92Zm39.56,5.26a1.857,1.857,0,0,1-.51.61,1.135,1.135,0,0,1-.67.19,1.728,1.728,0,0,1-.91-.31q-.49-.31-1.17-.69a9.635,9.635,0,0,0-1.59-.69,6.683,6.683,0,0,0-2.15-.31,6.418,6.418,0,0,0-1.96.27,4.116,4.116,0,0,0-1.41.75,3,3,0,0,0-.85,1.15,3.775,3.775,0,0,0-.28,1.47,2.556,2.556,0,0,0,.57,1.7,4.759,4.759,0,0,0,1.51,1.16,14.013,14.013,0,0,0,2.14.86q1.2.38,2.46.81a23.171,23.171,0,0,1,2.46,1,8.491,8.491,0,0,1,2.14,1.44,6.526,6.526,0,0,1,1.51,2.13,7.4,7.4,0,0,1,.57,3.06,9.97,9.97,0,0,1-.67,3.67,8.467,8.467,0,0,1-1.96,2.98,9.232,9.232,0,0,1-3.15,2A11.6,11.6,0,0,1-49.8.32,13.736,13.736,0,0,1-52.52.05a14.318,14.318,0,0,1-2.57-.77,13.767,13.767,0,0,1-2.31-1.2,11.137,11.137,0,0,1-1.92-1.56l1.58-2.58a1.686,1.686,0,0,1,.52-.47,1.311,1.311,0,0,1,.68-.19,1.908,1.908,0,0,1,1.08.41q.58.41,1.38.91a10.862,10.862,0,0,0,1.87.91,7.191,7.191,0,0,0,2.57.41,5.275,5.275,0,0,0,3.56-1.09A3.914,3.914,0,0,0-44.82-8.3a2.906,2.906,0,0,0-.57-1.86,4.6,4.6,0,0,0-1.51-1.21,11.274,11.274,0,0,0-2.14-.83q-1.2-.34-2.44-.74a21.041,21.041,0,0,1-2.44-.96,7.9,7.9,0,0,1-2.14-1.46,6.643,6.643,0,0,1-1.51-2.25,8.575,8.575,0,0,1-.57-3.33,7.882,7.882,0,0,1,.63-3.08,7.952,7.952,0,0,1,1.83-2.66,8.965,8.965,0,0,1,2.96-1.86,10.87,10.87,0,0,1,4.04-.7,13.49,13.49,0,0,1,4.72.8,10.656,10.656,0,0,1,3.68,2.24Zm36.22,9.2A15.639,15.639,0,0,1-6.46-8.62,13.415,13.415,0,0,1-9.44-4.04a13.332,13.332,0,0,1-4.62,2.98,16.292,16.292,0,0,1-6,1.06H-31.08V-28.92h11.02a16.156,16.156,0,0,1,6,1.07,13.526,13.526,0,0,1,4.62,2.98A13.309,13.309,0,0,1-6.46-20.3,15.639,15.639,0,0,1-5.4-14.46Zm-5.52,0a13.467,13.467,0,0,0-.63-4.27,8.849,8.849,0,0,0-1.82-3.2,7.94,7.94,0,0,0-2.88-2.01,9.875,9.875,0,0,0-3.81-.7h-5.62V-4.28h5.62a9.875,9.875,0,0,0,3.81-.7,7.94,7.94,0,0,0,2.88-2.01,8.849,8.849,0,0,0,1.82-3.2A13.467,13.467,0,0,0-10.92-14.46Zm38.1-.04V-2.8A15.328,15.328,0,0,1,22.49-.43a18.392,18.392,0,0,1-5.33.75,17.788,17.788,0,0,1-6.41-1.1,14.349,14.349,0,0,1-4.9-3.06A13.405,13.405,0,0,1,2.72-8.52a15.7,15.7,0,0,1-1.1-5.94,16.335,16.335,0,0,1,1.06-5.98,13.492,13.492,0,0,1,3.01-4.68,13.438,13.438,0,0,1,4.73-3.04,17.114,17.114,0,0,1,6.24-1.08,18.282,18.282,0,0,1,3.29.28,16.656,16.656,0,0,1,2.84.77A12.3,12.3,0,0,1,25.18-27a14.26,14.26,0,0,1,1.98,1.54l-1.54,2.44a1.471,1.471,0,0,1-.94.71,1.681,1.681,0,0,1-1.26-.29l-1.32-.76a8.515,8.515,0,0,0-1.47-.66,12.066,12.066,0,0,0-1.82-.46,13.4,13.4,0,0,0-2.33-.18,9.983,9.983,0,0,0-3.87.72,8.188,8.188,0,0,0-2.95,2.06,9.285,9.285,0,0,0-1.88,3.22,12.618,12.618,0,0,0-.66,4.2,12.894,12.894,0,0,0,.71,4.43,9.32,9.32,0,0,0,2,3.3,8.523,8.523,0,0,0,3.11,2.06A11.089,11.089,0,0,0,17-3.96a11,11,0,0,0,2.86-.34,14.061,14.061,0,0,0,2.46-.92v-5.24H18.68a1.1,1.1,0,0,1-.81-.29.966.966,0,0,1-.29-.71V-14.5Zm20.7-2.02a1.318,1.318,0,0,1-.42.45,1.088,1.088,0,0,1-.56.13,1.764,1.764,0,0,1-.77-.2q-.41-.2-.95-.45a8.7,8.7,0,0,0-1.23-.45,5.891,5.891,0,0,0-1.63-.2,3.752,3.752,0,0,0-2.29.62A1.93,1.93,0,0,0,39.2-15a1.545,1.545,0,0,0,.43,1.11,3.866,3.866,0,0,0,1.14.79,11.157,11.157,0,0,0,1.61.61q.9.27,1.83.59t1.83.73a6.416,6.416,0,0,1,1.61,1.04,4.831,4.831,0,0,1,1.14,1.51,4.79,4.79,0,0,1,.43,2.12,6.922,6.922,0,0,1-.53,2.73,5.9,5.9,0,0,1-1.57,2.16A7.4,7.4,0,0,1,44.55-.19a11.159,11.159,0,0,1-3.53.51A11.173,11.173,0,0,1,38.95.13,12.218,12.218,0,0,1,37.01-.4a10.736,10.736,0,0,1-1.72-.8,8.349,8.349,0,0,1-1.39-1l1.14-1.88a1.612,1.612,0,0,1,.52-.52,1.458,1.458,0,0,1,.76-.18,1.6,1.6,0,0,1,.87.26q.41.26.95.56a8.491,8.491,0,0,0,1.27.56,5.588,5.588,0,0,0,1.85.26,4.8,4.8,0,0,0,1.51-.21,3.2,3.2,0,0,0,1.04-.55,2.065,2.065,0,0,0,.6-.79,2.368,2.368,0,0,0,.19-.93,1.659,1.659,0,0,0-.43-1.18,3.764,3.764,0,0,0-1.14-.8,11.01,11.01,0,0,0-1.62-.61q-.91-.27-1.86-.59a17.206,17.206,0,0,1-1.86-.75,6.339,6.339,0,0,1-1.62-1.09,4.933,4.933,0,0,1-1.14-1.62,5.653,5.653,0,0,1-.43-2.32,5.911,5.911,0,0,1,.5-2.4,5.629,5.629,0,0,1,1.47-1.99,7.3,7.3,0,0,1,2.42-1.36,10.081,10.081,0,0,1,3.35-.51,10.255,10.255,0,0,1,3.86.7A8.718,8.718,0,0,1,49-18.3Zm37.5,5.6-3.52-9.62q-.26-.64-.54-1.52t-.56-1.9q-.26,1.02-.54,1.91t-.54,1.55l-3.5,9.58ZM94.88,0H90.72a1.776,1.776,0,0,1-1.14-.35,2.179,2.179,0,0,1-.66-.87l-2.16-5.9H74.78l-2.16,5.9A1.917,1.917,0,0,1,72-.38,1.73,1.73,0,0,1,70.86,0h-4.2L78.04-28.92h5.48Zm43.58-28.92L129.48,0h-4.86L118.3-19.76a13.477,13.477,0,0,1-.48-1.76q-.12.5-.24.94t-.26.82L110.94,0h-4.88L97.1-28.92h4.5a1.986,1.986,0,0,1,1.17.33,1.589,1.589,0,0,1,.63.89l4.92,17.3q.16.64.31,1.39t.31,1.57q.16-.84.35-1.58t.41-1.38l5.68-17.3a1.893,1.893,0,0,1,.63-.84,1.77,1.77,0,0,1,1.15-.38h1.58a1.812,1.812,0,0,1,1.14.34,2.081,2.081,0,0,1,.66.88l5.66,17.3a24.969,24.969,0,0,1,.76,2.86q.26-1.58.58-2.86l4.92-17.3a1.5,1.5,0,0,1,.61-.86,1.922,1.922,0,0,1,1.17-.36Zm20.94,18-3.52-9.62q-.26-.64-.54-1.52t-.56-1.9q-.26,1.02-.54,1.91t-.54,1.55l-3.5,9.58ZM168.9,0h-4.16a1.776,1.776,0,0,1-1.14-.35,2.179,2.179,0,0,1-.66-.87l-2.16-5.9H148.8l-2.16,5.9a1.917,1.917,0,0,1-.62.84,1.73,1.73,0,0,1-1.14.38h-4.2l11.38-28.92h5.48Zm15.74-15.16a8.327,8.327,0,0,0,2.65-.38,5.123,5.123,0,0,0,1.86-1.05,4.217,4.217,0,0,0,1.09-1.59,5.5,5.5,0,0,0,.36-2.02,4.107,4.107,0,0,0-1.45-3.38,6.936,6.936,0,0,0-4.43-1.18h-3.44v9.6ZM198.48,0h-4.86a2.132,2.132,0,0,1-2-1.08l-6.08-9.26a2.134,2.134,0,0,0-.75-.74,2.628,2.628,0,0,0-1.21-.22h-2.3V0H175.9V-28.92h8.82a18.337,18.337,0,0,1,5.05.61,9.661,9.661,0,0,1,3.46,1.71,6.689,6.689,0,0,1,1.99,2.63,8.648,8.648,0,0,1,.64,3.37,8.733,8.733,0,0,1-.43,2.76,7.987,7.987,0,0,1-1.24,2.36,8.357,8.357,0,0,1-2,1.86,10.03,10.03,0,0,1-2.71,1.26,5.258,5.258,0,0,1,.96.71,5.046,5.046,0,0,1,.8.97ZM231.3-14.46a15.639,15.639,0,0,1-1.06,5.84,13.415,13.415,0,0,1-2.98,4.58,13.332,13.332,0,0,1-4.62,2.98,16.292,16.292,0,0,1-6,1.06H205.62V-28.92h11.02a16.156,16.156,0,0,1,6,1.07,13.526,13.526,0,0,1,4.62,2.98,13.309,13.309,0,0,1,2.98,4.57A15.639,15.639,0,0,1,231.3-14.46Zm-5.52,0a13.467,13.467,0,0,0-.63-4.27,8.849,8.849,0,0,0-1.82-3.2,7.94,7.94,0,0,0-2.88-2.01,9.875,9.875,0,0,0-3.81-.7h-5.62V-4.28h5.62a9.875,9.875,0,0,0,3.81-.7,7.94,7.94,0,0,0,2.88-2.01,8.849,8.849,0,0,0,1.82-3.2A13.467,13.467,0,0,0,225.78-14.46Z" transform="translate(493 865.207)" fill="#4985c1"/>
    <g id="グループ_520" data-name="グループ 520" transform="translate(260 706)">
      <path id="パス_6655" data-name="パス 6655" d="M-89.164,6.825a39.084,39.084,0,0,1-18.4-4.391q-8.394-4.391-13.285-14.953l12.118-6.67a26.7,26.7,0,0,0,7.782,9.005Q-96.39-6.96-88.608-6.96q7.671,0,10.228-2.613a9.506,9.506,0,0,0,2.557-6.948A8.69,8.69,0,0,0-77.1-21.3q-1.278-2-5.559-3.835a87.147,87.147,0,0,0-13.174-3.947q-10.784-2.557-15.9-8.227a20.3,20.3,0,0,1-5.114-14.119,22.235,22.235,0,0,1,3.335-12.229,22.528,22.528,0,0,1,9.394-8.171,32.341,32.341,0,0,1,14.286-2.946A35.429,35.429,0,0,1-76.49-72.441a31.635,31.635,0,0,1,9.839,6.115A30.865,30.865,0,0,1-60.258-58.1l-11.451,8.56a36.585,36.585,0,0,0-4.058-5.281A20.651,20.651,0,0,0-81.6-59.212a18.263,18.263,0,0,0-8.449-1.779,15.159,15.159,0,0,0-8.5,2.168q-3.28,2.168-3.28,6.726a7.848,7.848,0,0,0,.945,3.613q.945,1.834,4.447,3.613A56.352,56.352,0,0,0-85.273-41.2q13.007,3.113,18.844,9.283a21.247,21.247,0,0,1,5.837,15.175q0,11.451-7.727,17.51T-89.164,6.825Zm40.912-1.668V-72.664h25.681a45.452,45.452,0,0,1,19.9,4.113A29.779,29.779,0,0,1,10.67-55.877q4.78,8.56,4.78,22.124,0,13.341-4.78,21.957A30.028,30.028,0,0,1-2.671.989a44.938,44.938,0,0,1-19.9,4.169ZM-33.8-8.183h10.117q10.9,0,17.454-6.226T.331-33.753q0-13.23-6.559-19.4t-17.454-6.17H-33.8ZM56.7,7.048a35.148,35.148,0,0,1-18.733-5A34.2,34.2,0,0,1,25.178-12.13Q20.565-21.3,20.565-33.753q0-12.563,4.614-21.734a34.577,34.577,0,0,1,12.785-14.23A34.853,34.853,0,0,1,56.7-74.776a41.325,41.325,0,0,1,16.342,3.168,40.457,40.457,0,0,1,12.229,7.727l-9.116,11.34a23.159,23.159,0,0,0-8.338-5.837A27.5,27.5,0,0,0,56.7-60.657a18.839,18.839,0,0,0-11.284,3.391,21.334,21.334,0,0,0-7.226,9.394,36.543,36.543,0,0,0-2.5,14.119,36.224,36.224,0,0,0,2.5,14.008,21.334,21.334,0,0,0,7.226,9.394A18.839,18.839,0,0,0,56.7-6.96a30.374,30.374,0,0,0,8.338-.945,20.605,20.605,0,0,0,5.447-2.39V-25.3H58.7V-38.645H85.156V-.734A43.988,43.988,0,0,1,71.982,5.047,59.076,59.076,0,0,1,56.7,7.048Zm60.034-.778a35.916,35.916,0,0,1-12.4-2.168A28.062,28.062,0,0,1,93.606-3.069l8.56-9.45a20.383,20.383,0,0,0,15.342,6.67q4.225,0,5.892-1.056t1.668-3.947a3.182,3.182,0,0,0-.834-2.168,8.026,8.026,0,0,0-3.446-1.779,72.955,72.955,0,0,0-7.838-1.834q-8.116-1.556-12.507-5.336t-4.391-11.34a14.592,14.592,0,0,1,2.668-8.727A17.484,17.484,0,0,1,106-47.816,25.266,25.266,0,0,1,116.4-49.873q12.674,0,20.456,7.115l-7.671,10.006a16.574,16.574,0,0,0-5.948-3.724,19.6,19.6,0,0,0-6.615-1.167q-3.669,0-5,1.167a3.525,3.525,0,0,0-1.334,2.724,3.252,3.252,0,0,0,.667,2,6.563,6.563,0,0,0,2.891,1.723,62.812,62.812,0,0,0,6.893,1.946q9.227,2.112,13.952,6.392a14.628,14.628,0,0,1,4.725,11.4q0,8.338-6.392,12.451T116.73,6.269Z" transform="translate(388 100.72)" fill="#61ac9e"/>
      <path id="パス_6656" data-name="パス 6656" d="M-72.89,15.1a37.435,37.435,0,0,0-2.383-4.354Q-76.74,8.409-78.39,6.255a23.86,23.86,0,0,0-3.116-3.437Q-66.291-2.59-56.9-12.4A42.961,42.961,0,0,0-45.21-34.669H-78.39V-47.684h33.913V-69.132h14.3v21.448H3.734v13.015h-33.18a41.764,41.764,0,0,0,6.6,15.4A53.5,53.5,0,0,0-10.335-6.439,65.436,65.436,0,0,0,6.759,2.543,43.665,43.665,0,0,0,3.459,6.3,50.839,50.839,0,0,0,.251,10.838,31.556,31.556,0,0,0-2.04,15.1,83.664,83.664,0,0,1-16.064,7.034,71.776,71.776,0,0,1-28.483-4.1a56.013,56.013,0,0,1-8.936-13.611A53.237,53.237,0,0,1-46.493-4.148,77.367,77.367,0,0,1-59.05,6.943,93.041,93.041,0,0,1-72.89,15.1Zm93.4,1.008A29.24,29.24,0,0,0,18.353,10.2,31.367,31.367,0,0,0,15.1,4.743a62.37,62.37,0,0,0,9.578-1.329,100.973,100.973,0,0,0,10.4-2.7H25.823V-32.928H83.017V.71H73.668a105.935,105.935,0,0,0,10.54,2.7A63.406,63.406,0,0,0,93.74,4.743,29.516,29.516,0,0,0,90.533,10.2a36.584,36.584,0,0,0-2.2,5.912,84.664,84.664,0,0,1-10.174-2.062,104.154,104.154,0,0,1-10.586-3.391,90.119,90.119,0,0,1-9.578-4.262L62.3.71H46.446l4.4,5.683a81.724,81.724,0,0,1-9.532,4.262,109.3,109.3,0,0,1-10.586,3.391A81.856,81.856,0,0,1,20.507,16.108ZM14-38.977V-61.524H27.381q-.825-1.558-1.6-2.933a17.526,17.526,0,0,0-1.512-2.291l12.374-4.216a45.484,45.484,0,0,1,2.612,4.445q1.421,2.7,2.429,5h5.866v-9.257h13.84v9.257h5.5q1.1-2.108,2.2-4.629a39.645,39.645,0,0,0,1.741-4.72l12.557,3.758A56.508,56.508,0,0,1,81-61.524H94.749v22.089H81.734V-52.359H27.015v13.382Zm15.582,3.941V-50.251H79.167v15.215Zm9.624,28.6h30.43v-2.75H39.205Zm0-8.341h30.43v-2.658H39.205Zm0-8.341h30.43v-2.658H39.205Zm3.3-18.148H66.244v-2.75H42.5Z" transform="translate(619.743 91.66)" fill="#61ac9e"/>
      <g id="グループ_186" data-name="グループ 186" transform="translate(0 20.695)">
        <g id="グループ_185" data-name="グループ 185" transform="translate(0 0)">
          <path id="パス_3845" data-name="パス 3845" d="M45.213,337.906c-2.787,0-13.729-.619-15.278-2.89-.619-.929-1.135-9.6-1.135-11.252a1.991,1.991,0,0,1,2.168-2.271,35.709,35.709,0,0,1,6.4,1.445,16.443,16.443,0,0,0,4.439.619c2.168,0,3.613-.619,3.613-2.994,0-2.168-1.961-6.193-4.439-6.193-1.135,0-4.748,2.168-5.987,2.89-6.3,3.922-15.794,9.7-21.677,13.935a6.326,6.326,0,0,0-2.684,2.787c-.516.826-.929,1.548-1.755,1.548-1.136,0-3.3-3.819-4.542-5.987C2.271,326.035,0,322.009,0,320.564c0-1.135,1.239-1.548,3.3-2.271,4.852-1.755,19.82-10.323,25.6-13.316a2.863,2.863,0,0,0,1.858-2.58,2.778,2.778,0,0,0-.516-1.548,13.527,13.527,0,0,1-1.548-6.3c0-4.129,2.684-13.935,6.3-13.935,1.652,0,11.871,3.406,11.871,4.954a4.587,4.587,0,0,1-.826,1.651c-.929,1.549-2.374,3.923-2.374,6.607,0,1.755,1.961,4.232,3.819,4.232.413,0,.723-.1,1.136-.1a29.153,29.153,0,0,1,4.232-.31c11.871,0,21.368,4.439,29.626,12.8C84.646,312.615,92.8,322.112,92.8,324.8c0,2.271-10.529,8.155-13.213,8.155-1.135,0-1.858-1.445-2.58-2.994-3.3-6.607-6.71-12.077-13.109-16.1a8.335,8.335,0,0,0-3.2-1.445,1.281,1.281,0,0,0-1.239,1.342,2.357,2.357,0,0,0,.31,1.136A23.8,23.8,0,0,1,62.143,324.9c0,10.632-7.742,13.006-16.93,13.006m-6.4-77.213c1.238,0,9.5,4.026,11.045,4.851,1.858.929,10.735,5.264,10.735,7.123,0,2.065-3.51,7.329-4.749,9.187-.826,1.239-2.271,3.3-3.407,3.3a3.971,3.971,0,0,1-2.271-1.342c-4.541-4.026-10.632-7.329-16-9.91-1.548-.723-2.477-1.136-2.477-2.271,0-1.445,4.336-10.942,7.123-10.942m43.561,23.019c0,1.858-4.852,5.884-6.09,5.884-.619,0-1.238-.826-1.858-1.549-2.58-3.1-4.645-5.264-7.432-8.154a1.7,1.7,0,0,1-.826-1.239c0-1.548,5.368-5.264,6.4-5.264s9.806,8.774,9.806,10.323m11.458-8.671c0,1.755-4.748,5.884-6.09,5.884-.517,0-.826-.516-1.136-.929a109.491,109.491,0,0,0-8.258-8.774c-.309-.31-.722-.619-.722-1.136,0-1.548,5.161-5.368,6.4-5.368.929,0,9.806,8.671,9.806,10.323" transform="translate(73.324 -252.047)" fill="#61ac9e"/>
          <path id="パス_3846" data-name="パス 3846" d="M11.045,557.482c7.05-15.192,14-30.484,23.137-44.584,4.171-6.454,8.638-12.909,12.511-19.562.3-.6.6-1.092,1.39-1.092,1.092,0,7.547,4.965,8.838,5.958l1.291.993c1.887,1.391,2.979,2.284,2.979,3.178s-.6,1.291-1.39,1.489c-2.581.5-2.581.993-4.568,3.476a146.33,146.33,0,0,0-10.327,14.4,3.719,3.719,0,0,0-.7,1.589,1.476,1.476,0,0,0,1.291,1.291,7.529,7.529,0,0,0,1.589-.3,15.151,15.151,0,0,1,3.575-.4c8.639,0,14.1,4.468,14.1,13.306,0,4.37-1.589,10.426-2.383,14.8a21.744,21.744,0,0,0-.5,3.774c0,.993.5,1.986,1.688,1.986,3.475,0,12.809-11.22,15.094-14.2,1.688-2.185,2.581-3.277,3.872-3.277,1.986,0,6.653,10.526,6.653,12.313,0,1.887-6.554,7.944-8.143,9.433-6.057,5.462-13.5,11.221-22.044,11.221-8.043,0-11.419-6.752-11.419-13.9a64.008,64.008,0,0,1,1.391-11.519,53.832,53.832,0,0,0,.993-7.348c0-1.688-.6-2.78-2.383-2.78a17.256,17.256,0,0,0-7.546,2.383c-4.171,2.383-6.256,4.965-8.639,9.135-2.88,5.164-7.149,14.6-8.539,20.356-.4,1.489-.795,2.979-2.582,2.979-2.284,0-8.242-2.78-10.426-3.972-1.688-.894-2.78-1.39-2.78-2.284,0-.7,3.376-7.646,3.972-8.837" transform="translate(167.131 -485.91)" fill="#61ac9e"/>
          <path id="パス_3847" data-name="パス 3847" d="M54.5,23.732c1.051,2.006,1.528,2.961,3.152,2.961s6.112-2.961,7.64-4.011c1.146-.764,2.484-1.623,3.534-1.623,2.292,0,7.64,8.882,7.64,11.27,0,1.337-1.91,2.2-3.247,2.77-2.292,1.051-4.489,2.1-6.781,3.056-1.623.669-2.483,1.242-2.483,2.579,0,1.05,1.146,2.961,2.1,4.584,3.343,6.017,6.495,11.938,10.7,16.522.859.955,2.961,3.247,2.961,4.489,0,2.578-7.163,8.213-9.36,8.213-.955,0-2.292-.955-3.439-1.719-.381-.286-.764-.477-1.05-.669-4.871-3.438-14.9-7.545-20.82-7.545-3.439,0-7.736,2.2-7.736,6.017,0,8.309,13.562,9.742,19.579,9.742,2.006,0,3.82-.191,5.539-.191,2.961,0,3.056,2.387,3.056,4.68a30.946,30.946,0,0,1-1.051,7.831c-.478,1.719-1.337,2.2-3.629,2.2A86.54,86.54,0,0,1,42.94,92.4c-10.7-2.674-19.961-8.882-19.961-21.011,0-12.224,10.123-19.865,21.775-19.865a32.266,32.266,0,0,1,6.017.669,1.865,1.865,0,0,0,.668.1c.764,0,1.623-.382,1.623-1.241,0-.764-1.145-2.674-1.91-4.011-1.051-1.91-1.623-2.674-3.342-2.674a8.344,8.344,0,0,0-1.338.286c-4.584,1.146-17,3.343-21.488,3.343-2.579,0-3.056-.859-3.821-3.151s-1.91-6.3-1.91-8.6c0-2.2.764-2.483,4.775-2.579A132.894,132.894,0,0,0,38.26,32.232c1.146-.191,2.388-.764,2.388-2.1,0-1.528-3.247-5.635-4.3-6.876-.764-.955-2.578-3.343-2.578-4.393,0-1.623,2.865-2.77,4.107-3.247,2.1-.859,6.781-2.674,8.882-2.674,2.006,0,2.77,1.433,5.443,6.495Z" transform="translate(-19.254 -7.523)" fill="#61ac9e"/>
          <path id="パス_3848" data-name="パス 3848" d="M162.2,16.4c1.211,1.412,6.959,8.372,6.959,9.784,0,2.017-5.345,5.245-6.455,5.245-.6,0-1.108-.807-1.513-1.412a99.787,99.787,0,0,0-6.657-9.078c-.4-.5-.6-.807-.6-1.109,0-1.513,5.548-4.539,6.758-4.539.5,0,1.008.5,1.512,1.109" transform="translate(-101.553 -8.528)" fill="#61ac9e"/>
          <path id="パス_3849" data-name="パス 3849" d="M186.53,1.05c1.242,1.337,6.685,7.831,6.685,9.264,0,1.814-5.062,4.966-6.112,4.966-.573,0-.955-.669-2.483-3.056-1.337-2.006-3.821-4.966-5.348-6.876a2.119,2.119,0,0,1-.477-1.051c0-1.337,5.157-4.3,6.3-4.3.478,0,.669.286,1.433,1.05" transform="translate(-114.617)" fill="#61ac9e"/>
        </g>
      </g>
    </g>
  </g>
</svg>
